<?xml version="1.0" standalone="no"?>
<!DOCTYPE svg PUBLIC "-//W3C//DTD SVG 1.1//EN" "http://www.w3.org/Graphics/SVG/1.1/DTD/svg11.dtd" >
<svg>
<metadata>
Created by FontForge 20090622 at Wed Mar  5 05:04:51 2014
 By ffonts
1.2, Copyright Copr. Castcraft Software, Inc. 1990-1991.
</metadata>
<defs>
<font id="OPTIEdgarBold-Extended" horiz-adv-x="1095" >
  <font-face 
    font-family="OPTIEdgarBold-Extended"
    font-weight="700"
    font-stretch="normal"
    units-per-em="1000"
    panose-1="0 0 0 0 0 0 0 0 0 0"
    ascent="800"
    descent="-200"
    x-height="564"
    cap-height="805"
    bbox="-87 -374 1623 1174.14"
    underline-thickness="81"
    underline-position="-108"
    stemh="166"
    stemv="207"
    unicode-range="U+0020-U+FB02"
  />
<missing-glyph horiz-adv-x="280" 
 />
    <glyph glyph-name=".notdef" horiz-adv-x="280" 
 />
    <glyph glyph-name="space" unicode=" " horiz-adv-x="225" 
d="M0 0z" />
    <glyph glyph-name="exclam" unicode="!" horiz-adv-x="357" 
d="M86 797h225l-12 -476h-204zM83 226h228v-226h-228v226z" />
    <glyph glyph-name="quotedbl" unicode="&#x22;" horiz-adv-x="497" 
d="M160 370h-34l-40 239c-5 24 -36 154 18 187c19 12 53 13 76 -5c51 -35 20 -159 17 -180zM392 370h-37l-35 237c-5 31 -40 155 14 189c23 13 57 13 79 -2c50 -35 19 -151 15 -180z" />
    <glyph glyph-name="numbersign" unicode="#" horiz-adv-x="1178" 
d="M552 930h121l-112 -321h207l112 321h121l-112 -321h226l-35 -108h-228l-75 -213h229l-37 -106h-229l-113 -323h-121l112 321h-207l-112 -321h-121l110 319h-226l39 110h226l75 213h-227l35 108h229zM448 288h207l74 213h-205z" />
    <glyph glyph-name="dollar" unicode="$" horiz-adv-x="1071" 
d="M497 857h118v-67c55 0 218 4 270 -19c96 -42 116 -126 121 -203h-210c-8 36 -15 47 -79 47h-99v-119c131 0 310 4 382 -114c40 -65 37 -212 6 -268c-68 -123 -277 -115 -388 -114v-71h-121v71h-109c-86 0 -182 -9 -253 61c-57 56 -55 130 -55 189h216c3 -46 0 -67 55 -70
h51h95v134h-44c-94 0 -277 1 -341 114c-37 62 -35 214 0 275c58 97 157 87 262 87h123v67zM419 611c-80 0 -94 0 -113 -30c-7 -10 -6 -40 0 -50c19 -38 93 -34 191 -34v114h-78zM618 180h20c74 0 140 -4 164 29c13 17 9 45 1 62c-20 43 -105 37 -185 37v-128z" />
    <glyph glyph-name="percent" unicode="%" horiz-adv-x="1538" 
d="M861 803h98l-265 -803h-101zM247 672c-21 -11 -31 -45 -31 -83v-93c0 -36 10 -73 31 -83c7 -5 31 -9 65 -9h114c34 0 58 4 65 9c21 10 31 47 31 83v93c0 38 -10 72 -31 83c-7 4 -31 8 -65 8h-115c-30 0 -57 -4 -64 -8zM416 805c80 0 167 9 220 -43c46 -45 40 -90 40 -135
v-174c0 -45 6 -91 -40 -135c-53 -52 -145 -41 -217 -43h-97c-23 0 -164 -6 -215 43c-46 44 -40 90 -40 135v174c0 45 -6 90 40 135c50 49 140 43 220 43h89zM1064 396c-21 -10 -31 -44 -31 -82v-94c0 -35 10 -72 31 -82c7 -5 31 -9 65 -9h114c34 0 57 4 65 9
c20 10 31 47 31 82v94c0 38 -11 72 -31 82c-8 5 -31 9 -65 9h-116c-29 0 -56 -4 -63 -9zM1232 530c80 0 167 8 221 -43c46 -45 40 -91 40 -135v-174c0 -45 6 -91 -40 -135c-54 -52 -145 -42 -218 -43h-96c-24 0 -164 -6 -216 43c-46 44 -40 90 -40 135v174
c0 44 -6 90 40 135c50 49 141 43 220 43h89z" />
    <glyph glyph-name="ampersand" unicode="&#x26;" horiz-adv-x="1220" 
d="M966 538h-207c0 37 1 61 -16 79c-24 22 -57 22 -136 22h-113c-25 0 -80 4 -96 -16c-5 -6 -10 -15 -7 -33c5 -34 109 -81 134 -94l318 -168v110h195v-105s-1 -58 -7 -96l148 -86l-77 -147l-136 77c-70 -74 -139 -81 -226 -81h-345c-81 0 -226 0 -288 93
c-36 52 -40 235 -20 289c17 40 43 63 92 74c28 6 56 7 65 7c-58 38 -69 58 -75 127c-3 45 -2 96 7 123c33 95 144 92 228 92h296c57 0 195 -2 241 -79c28 -47 25 -128 25 -188zM303 349c-10 -19 -15 -106 2 -133c28 -47 117 -43 176 -43h302l-394 204c-52 0 -69 0 -86 -28z
" />
    <glyph glyph-name="quotesingle" unicode="'" horiz-adv-x="263" 
d="M163 364h-37l-37 245c-6 42 -34 154 15 187c22 13 56 13 76 0c54 -37 24 -155 20 -187z" />
    <glyph glyph-name="parenleft" unicode="(" horiz-adv-x="504" 
d="M460 806v-180c-74 -2 -115 6 -140 -21c-24 -25 -20 -90 -20 -136v-142c0 -92 -4 -123 33 -144c13 -7 63 -7 124 -7v-185h-66c-48 0 -191 -6 -252 56s-59 147 -59 216v267c0 57 -5 164 63 226c64 58 214 50 290 50h27z" />
    <glyph glyph-name="parenright" unicode=")" horiz-adv-x="506" 
d="M108 806c77 0 226 8 290 -50c68 -62 64 -169 64 -226v-267c0 -69 1 -154 -60 -216c-60 -62 -204 -56 -251 -56h-67v185c61 0 111 0 125 7c37 21 32 52 32 144v142c0 46 5 111 -19 136c-25 27 -67 19 -141 21v180h27z" />
    <glyph glyph-name="asterisk" unicode="*" horiz-adv-x="590" 
d="M253 812l61 -133l-73 -36l-81 119zM392 812l89 -49l-82 -121l-71 37zM87 642l148 -7v-88l-148 -7v102zM550 642v-104l-145 8v86zM243 537l71 -40l-60 -135l-91 52zM402 536l82 -114l-89 -60l-62 137c21 11 29 17 69 37z" />
    <glyph glyph-name="plus" unicode="+" horiz-adv-x="996" 
d="M447 879h128v-376h370v-129h-370v-374h-128v374h-373v129h373v376z" />
    <glyph glyph-name="comma" unicode="," horiz-adv-x="362" 
d="M318 220v-167c0 -57 6 -154 -40 -201c-52 -53 -171 -43 -226 -44v124c31 0 47 0 57 4c40 14 34 30 37 64h-62v220h234z" />
    <glyph glyph-name="hyphen" unicode="-" horiz-adv-x="433" 
d="M77 382h309v-202h-309v202z" />
    <glyph glyph-name="period" unicode="." horiz-adv-x="362" 
d="M84 226h233v-226h-233v226z" />
    <glyph glyph-name="slash" unicode="/" horiz-adv-x="605" 
d="M438 799h117l-363 -808h-117z" />
    <glyph glyph-name="zero" unicode="0" 
d="M723 805c34 0 191 6 259 -65c64 -64 70 -191 70 -265v-154c0 -46 3 -186 -71 -259c-64 -62 -198 -62 -259 -62h-331c-61 0 -196 0 -259 62c-74 73 -71 213 -71 259v154c0 74 6 201 69 265c68 71 225 65 259 65h334zM672 194c28 0 93 -8 127 47c7 13 13 53 12 108v115
c0 32 0 80 -14 107c-22 44 -119 38 -140 38h-203c-21 0 -118 6 -140 -38c-14 -27 -14 -75 -14 -107v-115c0 -55 5 -95 12 -108c34 -55 99 -47 127 -47h233z" />
    <glyph glyph-name="one" unicode="1" 
d="M476 805h293v-805h-223v608l-293 -188l-112 157z" />
    <glyph glyph-name="two" unicode="2" 
d="M337 169h701v-169h-930v173c0 44 -6 141 46 200s146 68 201 71l274 18c32 1 143 1 167 48c10 21 10 73 -3 91c-27 40 -90 34 -120 34h-211c-42 0 -89 3 -116 -42c-12 -21 -12 -50 -12 -92h-227c0 43 -8 178 45 234c62 65 154 70 239 70h306c75 0 241 10 303 -91
c36 -56 36 -266 6 -323c-50 -100 -203 -104 -271 -108l-279 -17c-51 -3 -86 -6 -108 -31c-14 -15 -11 -46 -11 -66z" />
    <glyph glyph-name="three" unicode="3" 
d="M880 404c52 -9 111 -21 136 -83c18 -43 18 -192 -13 -237c-56 -85 -163 -84 -265 -84h-386c-69 0 -180 1 -240 84c-31 45 -28 165 -28 203h228c0 -36 -3 -77 19 -99c23 -21 77 -19 97 -19h221c63 0 119 -6 139 34c9 17 11 68 -2 87c-26 37 -91 31 -122 31h-207v166h216
c52 0 77 -5 96 34c9 17 12 56 -1 77c-25 40 -92 37 -145 37h-179c-28 0 -95 6 -119 -36c-8 -15 -7 -34 -7 -74h-228c0 36 -6 161 48 218c56 57 143 62 214 62h373c53 0 197 10 256 -76c34 -50 28 -210 20 -232c-20 -58 -79 -78 -121 -93z" />
    <glyph glyph-name="four" unicode="4" 
d="M652 805h273v-456h125v-180h-125v-169h-224v169h-617v288zM278 349h423v265z" />
    <glyph glyph-name="five" unicode="5" 
d="M111 805h868v-170h-657v-139c57 42 77 44 144 47h203c111 0 264 1 322 -96c40 -67 37 -277 0 -342c-56 -104 -223 -104 -293 -105h-358c-52 3 -176 4 -228 84c-26 40 -26 110 -26 166h226c0 -93 58 -80 141 -81h149c74 0 155 -6 182 44c7 13 10 111 -1 129
c-26 40 -91 35 -181 35h-161c-45 0 -95 5 -120 -55h-210v483z" />
    <glyph glyph-name="six" unicode="6" 
d="M1000 564h-212c-5 40 -11 56 -56 65c-15 3 -53 6 -97 6h-160c-39 0 -99 7 -126 -46c-12 -24 -12 -64 -12 -138c51 42 85 58 150 58h235c99 0 217 9 277 -93c34 -58 32 -270 0 -327c-52 -92 -153 -89 -228 -89h-343c-95 0 -184 -6 -258 68c-65 70 -62 160 -62 238v185
c0 67 -6 172 61 238c72 71 151 76 287 76h306c66 0 171 -17 217 -95c25 -41 21 -95 21 -146zM342 293c-11 -27 -6 -74 6 -90c28 -39 94 -34 168 -34h122c10 0 131 -5 155 34c13 20 12 83 3 99c-25 47 -101 41 -173 41h-99c-108 0 -114 -1 -133 -7c-24 -8 -42 -24 -49 -43z
" />
    <glyph glyph-name="seven" unicode="7" 
d="M1022 805v-182l-504 -623h-281l485 605h-613v200h913z" />
    <glyph glyph-name="eight" unicode="8" 
d="M896 410c57 -21 105 -37 126 -107c14 -47 18 -183 -19 -232c-56 -77 -181 -70 -234 -71h-405c-49 1 -195 -13 -250 89c-24 46 -31 205 -2 251c26 42 61 52 113 64c-59 21 -98 35 -118 105c-14 44 -18 183 16 229c52 71 131 67 232 67h391c54 0 201 3 253 -80
c32 -52 29 -204 11 -243c-23 -50 -60 -59 -114 -72zM337 599c-12 -24 -9 -55 3 -74c24 -38 101 -34 169 -34h120c59 0 131 -6 155 34c13 22 9 58 0 76c-21 40 -117 34 -160 34h-222c-32 -3 -51 -12 -65 -36zM334 200c24 -34 95 -31 154 -31h144c62 0 131 -6 158 37
c12 19 12 65 0 84c-24 41 -83 35 -158 35h-142c-67 0 -114 3 -136 -11c-36 -26 -33 -95 -20 -114z" />
    <glyph glyph-name="nine" unicode="9" 
d="M93 229h227c0 -22 -2 -34 11 -46c12 -10 39 -14 117 -14h167c31 0 135 -6 163 34c15 20 12 122 12 146c-58 -52 -84 -52 -151 -55h-222c-86 0 -222 -11 -288 102c-34 61 -36 249 -2 308c56 99 164 101 240 101h324c83 0 198 1 269 -73c64 -63 62 -165 62 -238v-213
c0 -64 -7 -160 -71 -222c-69 -68 -183 -59 -266 -59h-339c-77 0 -179 -4 -232 86c-22 38 -21 100 -21 143zM346 500c25 -34 67 -30 127 -30h156c60 0 128 -4 151 31c14 23 16 74 4 95c-22 42 -98 39 -132 39h-193c-24 0 -73 3 -95 -14c-37 -26 -36 -97 -18 -121z" />
    <glyph glyph-name="colon" unicode=":" horiz-adv-x="358" 
d="M84 226h233v-226h-233v226zM84 564h233v-227h-233v227z" />
    <glyph glyph-name="semicolon" unicode=";" horiz-adv-x="357" 
d="M78 564h233v-227h-233v227zM312 220v-167c0 -57 6 -154 -40 -201c-52 -53 -171 -43 -226 -44v124c31 0 47 0 58 4c39 14 35 28 37 64h-63v220h234z" />
    <glyph glyph-name="less" unicode="&#x3c;" horiz-adv-x="1081" 
d="M1036 870v-133l-759 -296l760 -293v-136l-956 370v115z" />
    <glyph glyph-name="equal" unicode="=" horiz-adv-x="997" 
d="M78 666h870v-128h-870v128zM78 340h870v-127h-870v127z" />
    <glyph glyph-name="greater" unicode="&#x3e;" horiz-adv-x="1081" 
d="M83 868l957 -369v-111l-956 -376v134l758 295l-759 294v133z" />
    <glyph glyph-name="question" unicode="?" horiz-adv-x="920" 
d="M537 280h-207c0 136 22 177 166 205l22 5c31 6 125 19 143 62c9 20 6 47 -6 66c-22 36 -111 31 -124 31h-93c-33 0 -116 6 -141 -38c-11 -21 -14 -58 -17 -93h-203c0 46 -6 173 47 226c56 58 147 61 235 61h213c74 0 215 9 276 -86c31 -49 31 -223 7 -275
c-33 -71 -141 -82 -201 -95l-34 -7c-16 -3 -46 -12 -53 -15c-21 -9 -30 -30 -30 -47zM320 213h232v-213h-232v213z" />
    <glyph glyph-name="at" unicode="@" horiz-adv-x="1414" 
d="M837 228c-111 -114 -159 -139 -273 -116c-71 15 -129 57 -160 138c-45 121 4 283 83 386c84 113 174 151 276 142c82 -6 125 -41 159 -129l25 107h158l-96 -352c-9 -33 -49 -155 -13 -191c19 -22 44 -27 76 -19c91 18 151 105 187 195c46 115 52 312 -34 431
c-123 168 -343 195 -463 187c-173 -10 -367 -88 -485 -301c-92 -166 -117 -400 -23 -574c100 -184 286 -259 449 -271c162 -12 340 40 511 140l39 -56c-254 -179 -587 -202 -809 -108c-213 91 -323 267 -355 459c-30 177 23 438 217 612c187 166 497 206 681 156
c167 -46 301 -141 358 -321c44 -148 28 -369 -101 -520c-84 -96 -182 -125 -272 -114c-65 11 -99 39 -135 119zM683 643c-66 -75 -142 -312 -125 -383c9 -32 29 -57 59 -68c35 -12 83 2 114 27c97 74 149 288 145 365c-3 45 -14 74 -51 95c-31 19 -66 18 -94 4
c-14 -7 -28 -17 -48 -40z" />
    <glyph glyph-name="A" unicode="A" horiz-adv-x="1214" 
d="M459 805h319l436 -805h-267l-80 145h-494l-73 -145h-270zM466 314h309l-157 298z" />
    <glyph glyph-name="B" unicode="B" horiz-adv-x="1146" 
d="M86 805h698c58 0 203 -3 260 -88c37 -53 39 -177 23 -216c-20 -53 -55 -71 -105 -93c56 -12 103 -22 130 -88c20 -52 20 -181 -20 -239c-54 -78 -195 -81 -244 -81h-742v805zM330 479h379c35 0 91 -4 113 31c14 23 11 51 2 65c-22 39 -90 33 -121 33h-373v-129zM756 197
c31 0 77 -5 96 28c7 13 7 55 0 68c-22 41 -92 35 -123 35h-399v-131h426z" />
    <glyph glyph-name="C" unicode="C" horiz-adv-x="1175" 
d="M1111 515h-243c-4 89 -43 92 -121 93h-269c-45 0 -107 7 -135 -50c-16 -34 -18 -272 5 -308c38 -61 97 -53 155 -53h210c70 0 126 -5 154 43c9 16 10 35 12 71h245c0 -34 8 -187 -50 -246c-61 -65 -154 -65 -222 -65h-402c-99 0 -218 -1 -292 72c-75 76 -74 163 -74 287
v92c0 102 -4 204 71 280c73 72 216 74 301 74h393c101 0 184 -9 237 -101c19 -34 26 -134 25 -189z" />
    <glyph glyph-name="D" unicode="D" horiz-adv-x="1212" 
d="M86 805h702c91 0 215 6 295 -74c69 -70 69 -159 69 -252v-159c0 -76 2 -177 -66 -245c-74 -72 -221 -75 -302 -75h-698v805zM330 197h368c88 0 151 -5 191 59c22 37 21 259 2 296c-34 63 -122 56 -208 56h-353v-411z" />
    <glyph glyph-name="E" unicode="E" horiz-adv-x="1010" 
d="M80 805h871v-197h-627v-127h595v-161h-595v-123h642v-197h-886v805z" />
    <glyph glyph-name="F" unicode="F" horiz-adv-x="904" 
d="M84 805h826v-197h-582v-146h555v-185h-555v-277h-244v805z" />
    <glyph glyph-name="G" unicode="G" horiz-adv-x="1160" 
d="M1105 528h-238c-8 87 -46 80 -123 80h-211c-98 0 -163 7 -196 -55c-19 -35 -20 -278 3 -312c34 -50 96 -44 135 -44h269c27 0 90 -6 114 35c10 18 7 37 7 65h-301v163h547v-173c0 -46 7 -166 -53 -228c-54 -55 -206 -58 -240 -59h-423c-59 0 -176 -9 -249 67
c-68 71 -68 174 -68 257v166c0 69 -6 174 64 244c71 69 210 69 280 71h402c59 0 195 -5 253 -98c28 -47 28 -111 28 -179z" />
    <glyph glyph-name="H" unicode="H" horiz-adv-x="1148" 
d="M84 805h244v-289h509v289h244v-805h-244v306h-509v-306h-244v805z" />
    <glyph glyph-name="I" unicode="I" horiz-adv-x="371" 
d="M80 805h244v-805h-244v805z" />
    <glyph glyph-name="J" unicode="J" horiz-adv-x="902" 
d="M609 805h245v-483c0 -47 5 -183 -61 -254c-65 -67 -200 -68 -284 -68h-170c-92 0 -175 -4 -243 67c-63 66 -56 182 -56 254v27h235c0 -24 -6 -119 42 -141c28 -13 226 -16 255 3c42 27 37 101 37 160v435z" />
    <glyph glyph-name="K" unicode="K" horiz-adv-x="1133" 
d="M87 805h244v-296h117l311 296h328l-429 -391l483 -414h-347l-353 303h-110v-303h-244v805z" />
    <glyph glyph-name="L" unicode="L" horiz-adv-x="899" 
d="M86 805h244v-608h550v-197h-794v805z" />
    <glyph glyph-name="M" unicode="M" horiz-adv-x="1472" 
d="M87 805h382l278 -515l278 515h392v-805h-244v580l-333 -580h-185l-324 577v-577h-244v805z" />
    <glyph glyph-name="N" unicode="N" horiz-adv-x="1212" 
d="M78 805h378l463 -582v582h244v-805h-379l-462 574v-574h-244v805z" />
    <glyph glyph-name="O" unicode="O" horiz-adv-x="1212" 
d="M436 0c-75 0 -222 3 -290 72c-65 66 -66 202 -66 256v166c0 58 -5 172 66 241c73 73 188 70 284 70h394c96 0 210 1 284 -70c64 -60 56 -183 56 -241v-166c0 -69 9 -190 -56 -256c-68 -69 -234 -72 -290 -72h-382zM759 197c40 0 114 -8 149 53c8 12 12 53 12 98v109
c0 44 -4 86 -12 98c-35 60 -109 53 -149 53h-274c-40 0 -114 7 -149 -53c-8 -12 -12 -48 -12 -98v-109c0 -46 4 -86 12 -98c35 -61 109 -53 149 -53h274z" />
    <glyph glyph-name="P" unicode="P" horiz-adv-x="1080" 
d="M84 805h614c74 0 234 3 301 -116c48 -85 48 -301 -2 -387c-69 -117 -160 -104 -265 -105h-404v-197h-244v805zM328 393h324c37 0 92 -4 120 40c12 20 11 107 0 125c-28 53 -89 50 -176 50h-268v-215z" />
    <glyph glyph-name="Q" unicode="Q" horiz-adv-x="1222" 
d="M1161 213l89 -58l-87 -161l-85 55c-78 -46 -145 -49 -196 -49h-465c-63 0 -188 -10 -268 72c-65 69 -63 169 -63 245v158c0 62 -11 179 62 254c74 76 194 76 275 76h447c77 0 180 -12 244 -80c59 -62 52 -198 52 -268v-188c-2 -35 -2 -20 -5 -56zM922 388
c0 102 3 153 -30 186c-35 35 -104 34 -161 34h-231c-50 0 -109 9 -151 -61c-22 -37 -24 -260 -1 -297c34 -59 134 -53 201 -53h239c21 0 39 -2 51 6l-243 139l102 159l224 -142v29z" />
    <glyph glyph-name="R" unicode="R" horiz-adv-x="1112" 
d="M784 805c87 0 178 4 235 -70c49 -63 52 -245 34 -307c-20 -77 -68 -91 -125 -113c29 -9 48 -15 65 -25c75 -46 66 -163 66 -229v-61h-244c0 92 5 160 -24 186c-26 26 -96 23 -124 23h-337v-209h-244v805h698zM330 416h350c34 0 110 -3 137 38c13 21 13 89 0 114
c-24 46 -101 40 -135 40h-352v-192z" />
    <glyph glyph-name="S" unicode="S" horiz-adv-x="1130" 
d="M1050 527h-239c-6 72 -36 80 -102 81h-273c-34 0 -84 6 -106 -36c-8 -13 -6 -47 1 -60c23 -36 95 -33 145 -33l299 -7c74 -3 228 10 284 -93c34 -64 31 -210 -9 -275c-62 -103 -245 -104 -328 -104h-402c-48 0 -157 7 -211 86c-26 40 -29 126 -28 179h241
c6 -74 49 -68 95 -68h286c34 0 105 -2 127 25c10 13 10 40 0 62c-16 33 -79 28 -148 30l-318 7c-78 1 -209 -1 -259 95c-34 63 -34 233 3 296c61 102 178 93 291 93h416c65 0 161 -12 210 -88c28 -41 25 -149 25 -190z" />
    <glyph glyph-name="T" unicode="T" horiz-adv-x="994" 
d="M976 805v-197h-346v-608h-244v608h-339v197h929z" />
    <glyph glyph-name="U" unicode="U" horiz-adv-x="1135" 
d="M83 805h244v-395c0 -51 -6 -142 32 -181c39 -38 103 -32 138 -32h198c22 0 89 -6 125 31c32 34 26 103 26 176v401h244v-477c0 -91 9 -180 -63 -254c-77 -78 -176 -74 -281 -74h-360c-86 0 -155 -7 -235 75c-76 79 -68 216 -68 279v451z" />
    <glyph glyph-name="V" unicode="V" horiz-adv-x="1175" 
d="M18 805h263l308 -592l315 592h265l-428 -805h-300z" />
    <glyph glyph-name="W" unicode="W" horiz-adv-x="1472" 
d="M22 805h234l172 -586l205 586h225l203 -585l170 585h238l-260 -805h-277l-191 528l-188 -528h-276z" />
    <glyph glyph-name="X" unicode="X" horiz-adv-x="1179" 
d="M52 805h310l249 -280l250 280h305l-357 -391l389 -414h-321l-266 294l-259 -294h-327l385 404z" />
    <glyph glyph-name="Y" unicode="Y" horiz-adv-x="1146" 
d="M22 805h292l266 -329l275 329h286l-446 -528v-277h-242v284z" />
    <glyph glyph-name="Z" unicode="Z" horiz-adv-x="1070" 
d="M93 805h916v-193l-556 -415h572v-197h-945v192l556 416h-543v197z" />
    <glyph glyph-name="bracketleft" unicode="[" horiz-adv-x="504" 
d="M78 805h376v-197h-163v-411h166v-197h-379v805z" />
    <glyph glyph-name="backslash" unicode="\" horiz-adv-x="635" 
d="M81 947h114l395 -1108h-112z" />
    <glyph glyph-name="bracketright" unicode="]" horiz-adv-x="501" 
d="M78 805h376v-805h-377v197h163v411h-162v197z" />
    <glyph glyph-name="asciicircum" unicode="^" horiz-adv-x="672" 
d="M246 803h221l162 -217h-185l-86 115l-93 -115h-182z" />
    <glyph glyph-name="underscore" unicode="_" horiz-adv-x="882" 
d="M77 92h757v-92h-757v92z" />
    <glyph glyph-name="grave" unicode="`" horiz-adv-x="531" 
d="M83 803h263l141 -214h-173z" />
    <glyph glyph-name="a" unicode="a" horiz-adv-x="868" 
d="M815 0h-201v65c-62 -59 -95 -65 -161 -65h-160c-59 0 -152 -6 -195 59c-31 46 -33 170 -12 216c26 58 78 73 133 80c86 12 297 21 385 -35c0 50 4 96 -30 115c-21 13 -46 10 -73 10h-147c-15 0 -32 -3 -36 -6c-19 -13 -19 -29 -21 -38h-204c9 155 92 174 218 174h238
c59 0 154 8 217 -59c55 -56 49 -131 49 -202v-314zM513 124c25 0 43 2 49 3c19 5 36 11 45 39c5 20 0 44 -21 60c-11 8 -39 12 -76 12h-134c-37 0 -65 -4 -76 -12c-20 -16 -26 -40 -20 -60c8 -28 25 -34 44 -39c6 -1 24 -3 49 -3h140z" />
    <glyph glyph-name="b" unicode="b" horiz-adv-x="904" 
d="M430 -3c-65 9 -116 41 -136 99v-96h-208v805h208v-341c20 58 71 95 136 104c37 6 182 7 182 7c60 2 92 -5 117 -13c51 -15 93 -47 114 -103c11 -26 18 -74 18 -126v-102c0 -55 -7 -101 -18 -126c-21 -56 -63 -89 -114 -104c-25 -7 -57 -13 -117 -13c-75 -1 -145 3 -182 9
zM291 234c0 -36 21 -79 74 -79c0 0 64 -3 105 -3c45 0 114 3 114 3c54 0 74 43 74 79c0 0 2 31 2 52c0 20 -2 51 -2 51c0 36 -20 79 -74 79c0 0 -72 3 -118 3c-40 0 -101 -3 -101 -3c-53 0 -74 -43 -74 -79c0 0 -1 -29 -1 -47c0 -22 1 -56 1 -56z" />
    <glyph glyph-name="c" unicode="c" horiz-adv-x="876" 
d="M592 169c20 13 28 26 29 66h209c0 -56 -2 -127 -46 -174c-59 -62 -127 -73 -237 -73h-131c-104 0 -234 -9 -302 110c-43 77 -52 293 -2 378c63 105 151 99 292 99h151c87 0 196 -5 251 -93c27 -44 24 -91 24 -140h-207c-2 23 -3 54 -53 68c-30 7 -205 3 -205 3
c-53 0 -74 -37 -74 -79c0 0 -1 -29 -1 -47c0 -19 1 -50 1 -50c0 -48 21 -79 74 -79c23 -1 202 -6 227 11z" />
    <glyph glyph-name="d" unicode="d" horiz-adv-x="899" 
d="M325 -12c-59 0 -91 6 -116 13c-51 15 -94 48 -114 104c-11 25 -18 71 -18 126v102c0 52 7 100 18 126c20 56 63 88 114 103c25 8 57 15 116 13c0 0 145 -1 182 -7c65 -9 117 -46 136 -104v341h209v-805h-209v96c-19 -58 -71 -90 -136 -99c-37 -6 -106 -10 -182 -9z
M648 290c0 18 -2 47 -2 47c0 36 -20 79 -74 79c0 0 -60 3 -100 3c-46 0 -118 -3 -118 -3c-54 0 -74 -43 -74 -79c0 0 -2 -31 -2 -51c0 -21 2 -52 2 -52c0 -36 20 -79 74 -79c0 0 69 -3 113 -3c42 0 105 3 105 3c54 0 74 43 74 79c0 0 2 34 2 56z" />
    <glyph glyph-name="e" unicode="e" horiz-adv-x="848" 
d="M799 244h-515c0 -43 2 -96 37 -115c31 -17 220 -15 251 1c21 8 30 21 30 50h198c-10 -181 -142 -192 -275 -192h-114c-145 0 -238 -12 -306 105c-35 62 -40 321 -1 386c60 102 186 96 227 96h228c42 0 132 -7 188 -66c52 -55 52 -155 52 -229v-36zM555 432
c-25 7 -218 10 -237 0c-40 -22 -34 -44 -34 -68h309c0 28 -3 58 -38 68z" />
    <glyph glyph-name="f" unicode="f" horiz-adv-x="507" 
d="M499 666c-79 -2 -157 7 -181 -27c-12 -18 -10 -55 -10 -75h201v-148h-201v-416h-209v416h-96v148h96c0 54 -7 140 52 195c62 59 192 53 284 53h64v-146z" />
    <glyph glyph-name="g" unicode="g" horiz-adv-x="895" 
d="M636 496v68h209v-457c0 -86 7 -156 -58 -221c-65 -66 -183 -69 -272 -69h-206c-62 0 -152 -6 -201 63c-16 25 -22 56 -25 105h213c4 -16 4 -26 25 -38c4 -3 43 -5 49 -5h152c46 2 76 15 93 37c23 28 21 57 21 120c-78 -62 -124 -55 -207 -55h-59c-61 0 -207 -10 -268 98
c-37 67 -38 275 0 342c56 96 152 91 272 91h54c81 0 134 8 208 -79zM636 312c0 10 -1 28 -1 28c0 36 -21 77 -74 79c0 0 -61 3 -101 3c-46 0 -103 -3 -103 -3c-54 -2 -74 -43 -74 -79c0 0 -2 -19 -2 -32c0 -12 2 -31 2 -31c0 -36 20 -77 74 -79c0 0 54 -3 99 -3
c41 0 105 3 105 3c53 2 74 43 74 79c0 0 1 22 1 35z" />
    <glyph glyph-name="h" unicode="h" horiz-adv-x="885" 
d="M83 805h208v-332c34 63 67 86 134 97c59 10 270 13 331 -40c84 -71 74 -184 74 -259v-271h-209v214c0 103 5 157 -44 182c-24 12 -207 15 -238 -3c-55 -32 -48 -110 -48 -186v-207h-208v805z" />
    <glyph glyph-name="i" unicode="i" horiz-adv-x="337" 
d="M81 805h209v-167h-209v167zM290 564v-564h-209v564h209z" />
    <glyph glyph-name="j" unicode="j" horiz-adv-x="337" 
d="M81 805h206v-169h-206v169zM81 564h209v-526c0 -76 10 -161 -81 -204c-46 -22 -117 -20 -202 -20v140c60 2 74 18 74 74v536z" />
    <glyph glyph-name="k" unicode="k" horiz-adv-x="791" 
d="M81 805h209v-423h40l191 182h270l-275 -262l312 -302h-267l-228 228h-43v-228h-209v805z" />
    <glyph glyph-name="l" unicode="l" horiz-adv-x="337" 
d="M81 805h209v-805h-209v805z" />
    <glyph glyph-name="m" unicode="m" horiz-adv-x="1331" 
d="M756 442c16 55 40 101 111 122c69 20 257 17 328 -36c92 -69 86 -177 86 -281v-247h-209v216c0 87 5 154 -41 177c-34 18 -173 18 -206 -2c-45 -30 -39 -101 -39 -140v-251h-209v229c0 82 6 142 -40 163c-24 10 -179 16 -206 0c-48 -30 -44 -90 -44 -179v-213h-209v564
h199v-101c25 53 65 95 137 107c46 5 222 20 299 -64c21 -21 31 -42 43 -64z" />
    <glyph glyph-name="n" unicode="n" horiz-adv-x="876" 
d="M833 0h-209v291c0 27 -1 77 -38 98c-40 25 -193 30 -234 3c-64 -40 -61 -81 -61 -192v-200h-208v564h200v-83c44 66 93 83 168 91c28 3 238 12 315 -57c76 -68 67 -166 67 -243v-272z" />
    <glyph glyph-name="o" unicode="o" horiz-adv-x="907" 
d="M862 231c0 -53 -7 -101 -17 -126c-21 -56 -64 -89 -114 -104c-25 -7 -58 -13 -117 -13h-284c-59 0 -92 6 -117 13c-50 15 -93 48 -114 104c-10 25 -18 74 -18 126v102c0 55 8 100 18 126c21 56 64 88 114 103c25 8 58 13 117 13h284c59 0 92 -5 117 -13
c50 -15 93 -47 114 -103c10 -26 17 -74 17 -126v-102zM413 419c-46 0 -65 -6 -77 -12c-31 -16 -40 -45 -43 -76c-5 -45 -9 -128 32 -162c11 -9 40 -20 77 -20h139c39 2 67 11 77 20c42 34 37 117 33 162c-3 31 -12 60 -43 76c-12 6 -31 12 -77 12h-118z" />
    <glyph glyph-name="p" unicode="p" horiz-adv-x="905" 
d="M609 575c60 0 92 -5 117 -13c51 -15 94 -47 114 -103c11 -26 18 -71 18 -126v-102c0 -52 -7 -101 -18 -126c-20 -56 -63 -89 -114 -104c-25 -7 -57 -14 -117 -13c0 0 -145 2 -181 8c-66 8 -117 45 -137 103v-294h-208v759h208v-97c20 58 71 91 137 100c36 5 106 10 181 8
zM287 274c0 -18 1 -48 1 -48c0 -35 21 -78 74 -78c0 0 61 -3 101 -3c46 0 118 3 118 3c54 0 74 43 74 78c0 0 2 31 2 52s-2 52 -2 52c0 35 -20 78 -74 78c0 0 -69 3 -114 3c-41 0 -105 -3 -105 -3c-53 0 -74 -43 -74 -78c0 0 -1 -34 -1 -56z" />
    <glyph glyph-name="q" unicode="q" horiz-adv-x="904" 
d="M651 330c0 35 -21 78 -74 78c0 0 -64 3 -105 3c-44 0 -114 -3 -114 -3c-53 0 -74 -43 -74 -78c0 0 -1 -31 -1 -52s1 -52 1 -52c0 -35 21 -78 74 -78c0 0 72 -3 118 -3c40 0 101 3 101 3c53 0 74 43 74 78c0 0 1 30 1 48c0 22 -1 56 -1 56zM512 567
c65 -9 117 -42 136 -100v97h209v-759h-209v294c-19 -58 -71 -95 -136 -103c-37 -6 -182 -8 -182 -8c-59 -1 -92 6 -117 13c-50 15 -93 48 -114 104c-10 25 -18 74 -18 126v102c0 55 8 100 18 126c21 56 64 88 114 103c25 8 58 13 117 13c75 2 145 -3 182 -8z" />
    <glyph glyph-name="r" unicode="r" horiz-adv-x="707" 
d="M701 306h-180c0 34 0 76 -45 96c-32 15 -106 17 -140 -9c-48 -34 -42 -112 -42 -174v-219h-208v564h201v-95c35 62 77 96 152 103c55 6 175 9 231 -65c36 -45 31 -139 31 -201z" />
    <glyph glyph-name="s" unicode="s" horiz-adv-x="888" 
d="M808 404h-212c-6 15 -19 40 -59 41h-158c-18 0 -36 -1 -51 -4c-11 -2 -25 -5 -32 -15c-8 -10 -9 -22 -5 -34c6 -15 24 -18 40 -19c20 -2 23 -2 42 -2h202c77 0 191 6 246 -88c24 -42 21 -175 -1 -213c-54 -89 -171 -82 -236 -82h-266c-40 0 -175 8 -222 77
c-21 30 -24 56 -24 107h219c0 -11 0 -23 14 -34c25 -23 50 -20 93 -20h129c31 0 77 3 90 28c6 9 6 39 0 48c-18 28 -50 28 -121 28h-156c-96 0 -195 -9 -244 83c-25 46 -28 151 -3 194c49 82 169 76 238 76h265c76 0 136 -13 179 -59c24 -25 30 -66 33 -112z" />
    <glyph glyph-name="t" unicode="t" horiz-adv-x="726" 
d="M114 695h208v-131h329v-154h-329v-193c0 -32 -1 -57 27 -72c18 -10 93 -10 114 1c33 20 30 52 30 98h182c0 -74 10 -167 -88 -222c-78 -44 -316 -46 -395 0c-87 52 -78 167 -78 243v145h-107v154h107v131z" />
    <glyph glyph-name="u" unicode="u" horiz-adv-x="871" 
d="M81 564h209v-230c0 -90 -4 -140 43 -168c34 -21 198 -17 237 6c53 29 45 85 45 171v221h209v-564h-201v95c-25 -52 -48 -82 -132 -96c-81 -17 -263 -21 -345 47c-74 62 -65 143 -65 238v280z" />
    <glyph glyph-name="v" unicode="v" horiz-adv-x="825" 
d="M18 564h223l173 -395l169 395h231l-268 -564h-260z" />
    <glyph glyph-name="w" unicode="w" horiz-adv-x="1228" 
d="M12 564h228l131 -409l151 409h192l151 -409l129 409h226l-211 -564h-278l-111 306l-108 -306h-280z" />
    <glyph glyph-name="x" unicode="x" horiz-adv-x="818" 
d="M27 564h275l105 -154l111 154h268l-212 -262l246 -302h-268l-139 189l-133 -189h-258l229 290z" />
    <glyph glyph-name="y" unicode="y" horiz-adv-x="806" 
d="M18 564h228l165 -391l160 391h223l-275 -589c-89 -189 -160 -178 -325 -163v129c22 0 60 3 97 12c52 11 54 46 61 72h-77z" />
    <glyph glyph-name="z" unicode="z" horiz-adv-x="772" 
d="M98 564h615v-169l-322 -256h334v-139h-648v141l336 284h-315v139z" />
    <glyph glyph-name="braceleft" unicode="{" horiz-adv-x="751" 
d="M703 1067c-51 -11 -94 -18 -136 -42c-97 -53 -95 -140 -95 -220v-107c0 -238 -104 -275 -315 -313c80 -9 157 -21 225 -71c91 -68 91 -207 91 -267v-62c0 -165 34 -254 234 -275v-58c-87 0 -167 6 -245 52c-129 74 -122 176 -126 284v105c-2 190 -76 232 -250 256v74
c60 9 123 21 168 53c89 62 82 135 82 209v118c0 82 -5 148 56 215c81 90 228 105 311 106v-57z" />
    <glyph glyph-name="bar" unicode="|" horiz-adv-x="217" 
d="M90 1154h85v-1528h-85v1528z" />
    <glyph glyph-name="braceright" unicode="}" horiz-adv-x="747" 
d="M89 1124c83 -1 229 -16 310 -106c61 -67 57 -133 57 -215v-118c0 -74 -8 -147 81 -209c46 -32 108 -44 169 -53v-74c-175 -24 -249 -66 -250 -256v-105c-5 -108 3 -210 -126 -284c-79 -46 -158 -52 -246 -52v58c200 21 234 110 234 275v62c0 60 0 199 92 267
c68 50 145 62 225 71c-212 38 -315 75 -315 313v107c0 80 1 167 -95 220c-43 24 -86 31 -136 42v57z" />
    <glyph glyph-name="asciitilde" unicode="~" horiz-adv-x="679" 
d="M537 862h101c-9 -59 -27 -133 -91 -170c-62 -34 -124 -20 -211 12l-22 10c-36 17 -70 21 -94 3c-23 -17 -25 -35 -29 -51h-105c9 59 35 137 105 177c63 36 126 18 197 -13l26 -12c39 -15 67 -22 95 -3c24 16 25 31 28 47z" />
    <glyph glyph-name="Adieresis" unicode="&#xc4;" horiz-adv-x="1188" 
d="M355 1049h207v-167h-207v167zM651 1049h207v-167h-207v167zM444 805h319l437 -805h-268l-80 145h-494l-72 -145h-271zM451 314h309l-156 298z" />
    <glyph glyph-name="Aring" unicode="&#xc5;" horiz-adv-x="1188" 
d="M500 1169c43 7 235 14 278 -31c27 -30 22 -168 18 -181c-8 -35 -30 -55 -68 -66c-39 -12 -237 -18 -278 14c-45 36 -40 126 -37 167c6 63 23 88 87 97zM513 1018c2 -22 0 -37 27 -52c13 -6 118 -4 129 0c28 13 25 24 26 44c5 36 2 61 -13 74c-12 11 -117 11 -127 9
c-43 -9 -45 -37 -42 -75zM444 805h319l437 -805h-268l-80 145h-494l-72 -145h-271zM451 314h309l-156 298z" />
    <glyph glyph-name="Ccedilla" unicode="&#xc7;" horiz-adv-x="1175" 
d="M578 0h-125c-99 0 -218 -1 -292 72c-75 76 -74 163 -74 287v92c0 102 -4 204 71 280c73 72 216 74 301 74h393c101 0 184 -9 237 -101c19 -34 25 -134 25 -189h-243c0 89 -43 93 -121 93h-269c-45 0 -107 7 -135 -50c-16 -34 -18 -272 5 -308c38 -61 97 -53 155 -53h210
c70 0 126 -5 154 43c9 16 12 35 12 71h245c0 -34 8 -187 -50 -246c-61 -65 -154 -65 -222 -65h-200l-53 -89c56 9 108 9 147 -26c32 -30 38 -63 37 -91c-3 -41 -20 -75 -64 -103c-73 -46 -210 -24 -296 12l28 63c47 -16 130 -37 167 -17c21 10 28 22 28 39
c0 20 -7 36 -19 45c-19 15 -62 13 -102 3l-32 28z" />
    <glyph glyph-name="Eacute" unicode="&#xc9;" horiz-adv-x="1010" 
d="M462 1099h263l-229 -217h-175zM80 805h871v-197h-627v-127h595v-161h-595v-123h642v-197h-886v805z" />
    <glyph glyph-name="Ntilde" unicode="&#xd1;" horiz-adv-x="1212" 
d="M793 1083h100c-8 -59 -26 -133 -90 -170c-62 -34 -124 -21 -211 12l-22 10c-36 12 -69 21 -94 3c-22 -16 -25 -36 -29 -52h-105c4 56 35 138 105 178c63 35 125 17 196 -14l27 -12c34 -14 68 -25 95 -2c22 17 22 28 28 47zM75 805h378l463 -582v582h244v-805h-379
l-461 574v-574h-245v805z" />
    <glyph glyph-name="Odieresis" unicode="&#xd6;" horiz-adv-x="1212" 
d="M373 1061h207v-168h-207v168zM669 1061h207v-168h-207v168zM433 0c-75 0 -221 3 -290 72c-65 66 -66 202 -66 256v166c0 58 -5 172 66 241c73 73 188 70 285 70h393c96 0 210 1 284 -70c64 -60 56 -183 56 -241v-166c0 -69 9 -190 -56 -256c-68 -69 -234 -72 -290 -72
h-382zM756 197c40 0 114 -8 149 53c8 12 12 53 12 98v109c0 44 -4 86 -12 98c-35 60 -109 53 -149 53h-274c-40 0 -114 7 -149 -53c-8 -12 -12 -48 -12 -98v-109c0 -46 4 -86 12 -98c35 -61 109 -53 149 -53h274z" />
    <glyph glyph-name="Udieresis" unicode="&#xdc;" horiz-adv-x="1135" 
d="M333 1047h207v-167h-207v167zM629 1047h207v-167h-207v167zM80 805h244v-395c0 -51 -6 -142 33 -181c38 -38 102 -32 137 -32h198c22 0 89 -6 125 31c32 34 26 103 26 176v401h244v-477c0 -91 9 -180 -63 -254c-77 -78 -176 -74 -281 -74h-360c-86 0 -155 -7 -235 75
c-76 79 -68 216 -68 279v451z" />
    <glyph glyph-name="aacute" unicode="&#xe1;" horiz-adv-x="868" 
d="M391 846h263l-229 -217h-175zM824 0h-201v65c-62 -59 -95 -65 -161 -65h-160c-59 0 -153 -6 -195 59c-32 46 -33 170 -12 216c26 58 78 73 133 80c86 12 297 21 384 -35c0 50 5 96 -29 115c-21 13 -46 10 -73 10h-148c-14 0 -31 -3 -35 -6c-19 -13 -19 -29 -21 -38h-204
c9 155 92 174 218 174h238c59 0 154 8 217 -59c55 -56 49 -131 49 -202v-314zM522 124c25 0 43 2 49 3c19 5 36 11 44 39c6 20 0 44 -20 60c-11 8 -39 12 -76 12h-134c-37 0 -65 -4 -76 -12c-21 -16 -26 -40 -21 -60c9 -28 26 -34 45 -39c6 -1 24 -3 49 -3h140z" />
    <glyph glyph-name="agrave" unicode="&#xe0;" horiz-adv-x="868" 
d="M247 845h263l141 -215h-172zM821 0h-201v65c-62 -59 -95 -65 -161 -65h-160c-59 0 -153 -6 -195 59c-32 46 -33 170 -12 216c26 58 78 73 133 80c86 12 297 21 384 -35c0 50 5 96 -29 115c-21 13 -46 10 -73 10h-148c-14 0 -31 -3 -35 -6c-19 -13 -19 -29 -21 -38h-204
c9 155 92 174 218 174h238c59 0 154 8 217 -59c55 -56 49 -131 49 -202v-314zM519 124c25 0 43 2 49 3c19 5 36 11 44 39c6 20 0 44 -20 60c-11 8 -39 12 -76 12h-134c-37 0 -65 -4 -76 -12c-20 -16 -26 -40 -20 -60c8 -28 25 -34 44 -39c6 -1 24 -3 49 -3h140z" />
    <glyph glyph-name="acircumflex" unicode="&#xe2;" horiz-adv-x="868" 
d="M342 846h222l161 -217h-185l-86 115l-93 -115h-182zM824 0h-201v65c-62 -59 -95 -65 -161 -65h-160c-59 0 -153 -6 -195 59c-32 46 -33 170 -12 216c26 58 78 73 133 80c86 12 297 21 384 -35c0 50 5 96 -29 115c-21 13 -46 10 -73 10h-148c-14 0 -31 -3 -35 -6
c-19 -13 -19 -29 -21 -38h-204c9 155 92 174 218 174h238c59 0 154 8 217 -59c55 -56 49 -131 49 -202v-314zM522 124c25 0 43 2 49 3c19 5 36 11 44 39c6 20 0 44 -20 60c-11 8 -39 12 -76 12h-134c-37 0 -65 -4 -76 -12c-21 -16 -26 -40 -21 -60c9 -28 26 -34 45 -39
c6 -1 24 -3 49 -3h140z" />
    <glyph glyph-name="adieresis" unicode="&#xe4;" horiz-adv-x="868" 
d="M201 796h207v-167h-207v167zM497 796h207v-167h-207v167zM824 0h-201v65c-62 -59 -95 -65 -161 -65h-160c-59 0 -153 -6 -195 59c-32 46 -33 170 -12 216c26 58 78 73 133 80c86 12 297 21 384 -35c0 50 5 96 -29 115c-21 13 -46 10 -73 10h-148c-14 0 -31 -3 -35 -6
c-19 -13 -19 -29 -21 -38h-204c9 155 92 174 218 174h238c59 0 154 8 217 -59c55 -56 49 -131 49 -202v-314zM522 124c25 0 43 2 49 3c19 5 36 11 44 39c6 20 0 44 -20 60c-11 8 -39 12 -76 12h-134c-37 0 -65 -4 -76 -12c-21 -16 -26 -40 -21 -60c9 -28 26 -34 45 -39
c6 -1 24 -3 49 -3h140z" />
    <glyph glyph-name="atilde" unicode="&#xe3;" horiz-adv-x="868" 
d="M627 828h101c-9 -59 -27 -133 -90 -170c-63 -34 -125 -20 -212 12l-22 10c-36 12 -68 21 -93 3c-23 -16 -27 -35 -31 -51h-104c4 56 36 139 104 177c65 37 127 18 198 -13l26 -12c39 -15 68 -25 95 -3c22 18 19 27 28 47zM824 0h-201v65c-62 -59 -95 -65 -161 -65h-160
c-59 0 -153 -6 -195 59c-32 46 -33 170 -12 216c26 58 78 73 133 80c86 12 297 21 384 -35c0 50 5 96 -29 115c-21 13 -46 10 -73 10h-148c-14 0 -31 -3 -35 -6c-19 -13 -19 -29 -21 -38h-204c9 155 92 174 218 174h238c59 0 154 8 217 -59c55 -56 49 -131 49 -202v-314z
M522 124c25 0 43 2 49 3c19 5 36 11 44 39c6 20 0 44 -20 60c-11 8 -39 12 -76 12h-134c-37 0 -65 -4 -76 -12c-21 -16 -26 -40 -21 -60c9 -28 26 -34 45 -39c6 -1 24 -3 49 -3h140z" />
    <glyph glyph-name="aring" unicode="&#xe5;" horiz-adv-x="868" 
d="M343 917c43 6 235 13 278 -32c27 -30 22 -168 18 -181c-7 -35 -30 -55 -68 -66c-38 -12 -237 -20 -278 14c-46 36 -40 126 -37 168c6 62 24 87 87 97zM357 765c1 -22 0 -37 26 -52c13 -6 118 -4 129 0c28 13 25 24 26 44c5 36 2 61 -13 74c-12 11 -117 11 -127 9
c-43 -7 -44 -37 -41 -75zM821 0h-201v65c-62 -59 -95 -65 -161 -65h-160c-59 0 -153 -6 -195 59c-32 46 -33 170 -12 216c26 58 78 73 133 80c86 12 297 21 384 -35c0 50 5 96 -29 115c-21 13 -46 10 -73 10h-148c-14 0 -31 -3 -35 -6c-19 -13 -19 -29 -21 -38h-204
c9 155 92 174 218 174h238c59 0 154 8 217 -59c55 -56 49 -131 49 -202v-314zM519 124c25 0 43 2 49 3c19 5 36 11 44 39c6 20 0 44 -20 60c-11 8 -39 12 -76 12h-134c-37 0 -65 -4 -76 -12c-20 -16 -26 -40 -20 -60c8 -28 25 -34 44 -39c6 -1 24 -3 49 -3h140z" />
    <glyph glyph-name="ccedilla" unicode="&#xe7;" horiz-adv-x="876" 
d="M429 -12h-13c-104 0 -234 -9 -302 110c-43 77 -52 293 -2 378c63 105 151 99 292 99h151c87 0 196 -5 251 -93c27 -44 24 -91 24 -140h-207c0 23 -3 54 -53 68c-30 7 -205 3 -205 3c-53 0 -74 -37 -74 -79c0 0 -1 -29 -1 -47c0 -19 1 -50 1 -50c0 -48 21 -79 74 -79
c23 0 202 -6 227 11c20 13 29 26 29 66h209c0 -56 -2 -127 -46 -174c-59 -62 -127 -73 -237 -73h-41l-52 -87c56 9 101 7 145 -27c34 -26 40 -59 40 -88c0 -42 -21 -77 -65 -106c-73 -45 -210 -23 -296 12l28 64c48 -16 127 -42 167 -18c20 12 28 21 28 40s-7 34 -19 44
c-22 20 -62 14 -102 3l-32 29z" />
    <glyph glyph-name="eacute" unicode="&#xe9;" horiz-adv-x="848" 
d="M379 846h263l-229 -217h-175zM802 244h-515c0 -43 1 -96 37 -115c31 -17 220 -15 251 1c21 8 30 21 30 50h198c-10 -181 -142 -192 -275 -192h-114c-145 0 -238 -12 -306 105c-36 62 -40 321 -1 386c60 102 186 96 227 96h228c42 0 132 -7 188 -66
c52 -55 52 -155 52 -229v-36zM558 432c-25 7 -218 10 -237 0c-40 -22 -34 -44 -34 -68h309c0 28 -3 58 -38 68z" />
    <glyph glyph-name="egrave" unicode="&#xe8;" horiz-adv-x="848" 
d="M238 845h263l141 -215h-172zM802 244h-515c0 -43 1 -96 37 -115c31 -17 220 -15 251 1c21 8 30 21 30 50h198c-10 -181 -142 -192 -275 -192h-114c-145 0 -238 -12 -306 105c-36 62 -40 321 -1 386c60 102 186 96 227 96h228c42 0 132 -7 188 -66c52 -55 52 -155 52 -229
v-36zM558 432c-25 7 -218 10 -237 0c-40 -22 -34 -44 -34 -68h309c0 28 -3 58 -38 68z" />
    <glyph glyph-name="ecircumflex" unicode="&#xea;" horiz-adv-x="848" 
d="M330 846h222l162 -217h-186l-86 115l-93 -115h-182zM802 244h-515c0 -43 1 -96 37 -115c31 -17 220 -15 251 1c21 8 30 21 30 50h198c-10 -181 -142 -192 -275 -192h-114c-145 0 -238 -12 -306 105c-36 62 -40 321 -1 386c60 102 186 96 227 96h228c42 0 132 -7 188 -66
c52 -55 52 -155 52 -229v-36zM558 432c-25 7 -218 10 -237 0c-40 -22 -34 -44 -34 -68h309c0 28 -3 58 -38 68z" />
    <glyph glyph-name="edieresis" unicode="&#xeb;" horiz-adv-x="848" 
d="M189 796h207v-167h-207v167zM485 796h207v-167h-207v167zM802 244h-515c0 -43 1 -96 37 -115c31 -17 220 -15 251 1c21 8 30 21 30 50h198c-10 -181 -142 -192 -275 -192h-114c-145 0 -238 -12 -306 105c-36 62 -40 321 -1 386c60 102 186 96 227 96h228
c42 0 132 -7 188 -66c52 -55 52 -155 52 -229v-36zM558 432c-25 7 -218 10 -237 0c-40 -22 -34 -44 -34 -68h309c0 28 -3 58 -38 68z" />
    <glyph glyph-name="iacute" unicode="&#xed;" horiz-adv-x="337" 
d="M127 839h264l-230 -218h-174zM293 564v-564h-209v564h209z" />
    <glyph glyph-name="igrave" unicode="&#xec;" horiz-adv-x="337" 
d="M-16 837h263l141 -214h-172zM290 564v-564h-209v564h209z" />
    <glyph glyph-name="icircumflex" unicode="&#xee;" horiz-adv-x="337" 
d="M75 839h222l163 -218h-186l-86 116l-93 -116h-182zM290 564v-564h-209v564h209z" />
    <glyph glyph-name="idieresis" unicode="&#xef;" horiz-adv-x="337" 
d="M-65 788h207v-167h-207v167zM231 788h207v-167h-207v167zM290 564v-564h-209v564h209z" />
    <glyph glyph-name="ntilde" unicode="&#xf1;" horiz-adv-x="876" 
d="M630 827h101c-9 -59 -27 -133 -90 -170c-63 -34 -125 -21 -212 12l-22 10c-36 12 -68 19 -93 3c-23 -15 -26 -36 -30 -52h-105c7 62 35 138 105 178c64 35 126 17 197 -14l26 -11c39 -15 68 -26 95 -3c22 17 19 26 28 47zM830 0h-209v291c0 27 -1 77 -38 98
c-40 25 -192 30 -234 3c-63 -40 -61 -81 -61 -192v-200h-208v564h200v-83c44 66 93 83 168 91c28 3 238 12 315 -57c76 -68 67 -166 67 -243v-272z" />
    <glyph glyph-name="oacute" unicode="&#xf3;" horiz-adv-x="907" 
d="M405 842h264l-230 -218h-174zM859 231c0 -53 -7 -101 -17 -126c-21 -56 -64 -89 -114 -104c-25 -7 -58 -13 -117 -13h-284c-59 0 -92 6 -117 13c-50 15 -93 48 -114 104c-10 25 -18 74 -18 126v102c0 55 8 100 18 126c21 56 64 88 114 103c25 8 58 13 117 13h284
c59 0 92 -5 117 -13c50 -15 93 -47 114 -103c10 -26 17 -74 17 -126v-102zM410 419c-46 0 -65 -6 -77 -12c-31 -16 -40 -45 -43 -76c-4 -45 -9 -128 32 -162c11 -9 40 -20 77 -20h139c39 2 67 11 77 20c42 34 37 117 33 162c-3 31 -12 60 -43 76c-12 6 -31 12 -77 12h-118z
" />
    <glyph glyph-name="ograve" unicode="&#xf2;" horiz-adv-x="907" 
d="M265 840h263l141 -214h-172zM859 231c0 -53 -7 -101 -17 -126c-21 -56 -64 -89 -114 -104c-25 -7 -58 -13 -117 -13h-284c-59 0 -92 6 -117 13c-50 15 -93 48 -114 104c-10 25 -18 74 -18 126v102c0 55 8 100 18 126c21 56 64 88 114 103c25 8 58 13 117 13h284
c59 0 92 -5 117 -13c50 -15 93 -47 114 -103c10 -26 17 -74 17 -126v-102zM410 419c-46 0 -65 -6 -77 -12c-31 -16 -40 -45 -43 -76c-4 -45 -9 -128 32 -162c11 -9 40 -20 77 -20h139c39 2 67 11 77 20c42 34 37 117 33 162c-3 31 -12 60 -43 76c-12 6 -31 12 -77 12h-118z
" />
    <glyph glyph-name="ocircumflex" unicode="&#xf4;" horiz-adv-x="907" 
d="M359 842h222l162 -218h-185l-86 116l-93 -116h-182zM862 231c0 -53 -7 -101 -17 -126c-21 -56 -64 -89 -114 -104c-25 -7 -58 -13 -117 -13h-284c-59 0 -92 6 -117 13c-50 15 -93 48 -114 104c-10 25 -18 74 -18 126v102c0 55 8 100 18 126c21 56 64 88 114 103
c25 8 58 13 117 13h284c59 0 92 -5 117 -13c50 -15 93 -47 114 -103c10 -26 17 -74 17 -126v-102zM413 419c-46 0 -65 -6 -77 -12c-31 -16 -40 -45 -43 -76c-5 -45 -9 -128 32 -162c11 -9 40 -20 77 -20h139c39 2 67 11 77 20c42 34 37 117 33 162c-3 31 -12 60 -43 76
c-12 6 -31 12 -77 12h-118z" />
    <glyph glyph-name="odieresis" unicode="&#xf6;" horiz-adv-x="907" 
d="M219 791h207v-167h-207v167zM515 791h207v-167h-207v167zM862 231c0 -53 -7 -101 -17 -126c-21 -56 -64 -89 -114 -104c-25 -7 -58 -13 -117 -13h-284c-59 0 -92 6 -117 13c-50 15 -93 48 -114 104c-10 25 -18 74 -18 126v102c0 55 8 100 18 126c21 56 64 88 114 103
c25 8 58 13 117 13h284c59 0 92 -5 117 -13c50 -15 93 -47 114 -103c10 -26 17 -74 17 -126v-102zM413 419c-46 0 -65 -6 -77 -12c-31 -16 -40 -45 -43 -76c-5 -45 -9 -128 32 -162c11 -9 40 -20 77 -20h139c39 2 67 11 77 20c42 34 37 117 33 162c-3 31 -12 60 -43 76
c-12 6 -31 12 -77 12h-118z" />
    <glyph glyph-name="otilde" unicode="&#xf5;" horiz-adv-x="907" 
d="M645 824h101c-9 -59 -27 -133 -91 -170c-62 -34 -124 -21 -211 12l-22 10c-36 12 -68 21 -94 3c-19 -13 -23 -33 -31 -52h-103c4 56 35 139 103 178c65 37 128 17 199 -14l26 -11c39 -15 68 -26 95 -3c22 17 19 26 28 47zM862 231c0 -53 -7 -101 -17 -126
c-21 -56 -64 -89 -114 -104c-25 -7 -58 -13 -117 -13h-284c-59 0 -92 6 -117 13c-50 15 -93 48 -114 104c-10 25 -18 74 -18 126v102c0 55 8 100 18 126c21 56 64 88 114 103c25 8 58 13 117 13h284c59 0 92 -5 117 -13c50 -15 93 -47 114 -103c10 -26 17 -74 17 -126v-102z
M413 419c-46 0 -65 -6 -77 -12c-31 -16 -40 -45 -43 -76c-5 -45 -9 -128 32 -162c11 -9 40 -20 77 -20h139c39 2 67 11 77 20c42 34 37 117 33 162c-3 31 -12 60 -43 76c-12 6 -31 12 -77 12h-118z" />
    <glyph glyph-name="uacute" unicode="&#xfa;" horiz-adv-x="871" 
d="M391 834h263l-229 -217h-175zM81 564h209v-230c0 -90 -4 -140 43 -168c34 -21 198 -17 237 6c53 29 45 85 45 171v221h209v-564h-201v95c-25 -52 -48 -82 -132 -96c-81 -17 -263 -21 -345 47c-74 62 -65 143 -65 238v280z" />
    <glyph glyph-name="ugrave" unicode="&#xf9;" horiz-adv-x="871" 
d="M250 833h263l141 -215h-172zM81 564h209v-230c0 -90 -4 -140 43 -168c34 -21 198 -17 237 6c53 29 45 85 45 171v221h209v-564h-201v95c-25 -52 -48 -82 -132 -96c-81 -17 -263 -21 -345 47c-74 62 -65 143 -65 238v280z" />
    <glyph glyph-name="ucircumflex" unicode="&#xfb;" horiz-adv-x="871" 
d="M339 834h222l161 -217h-185l-86 115l-93 -115h-182zM78 564h209v-230c0 -90 -4 -140 43 -168c34 -21 198 -17 237 6c53 29 45 85 45 171v221h209v-564h-201v95c-25 -52 -48 -82 -132 -96c-81 -17 -263 -21 -345 47c-73 62 -65 143 -65 238v280z" />
    <glyph glyph-name="udieresis" unicode="&#xfc;" horiz-adv-x="871" 
d="M198 784h207v-167h-207v167zM494 784h207v-167h-207v167zM78 564h209v-230c0 -90 -4 -140 43 -168c34 -21 198 -17 237 6c53 29 45 85 45 171v221h209v-564h-201v95c-25 -52 -48 -82 -132 -96c-81 -17 -263 -21 -345 47c-73 62 -65 143 -65 238v280z" />
    <glyph glyph-name="dagger" unicode="&#x2020;" horiz-adv-x="788" 
d="M503 799v-191h241v-160h-241v-448h-179v447h-243v158h241v194h181z" />
    <glyph glyph-name="cent" unicode="&#xa2;" horiz-adv-x="874" 
d="M530 704h121l-37 -136c52 3 135 -19 180 -80c33 -43 36 -103 33 -155h-200c0 12 -1 32 -13 47s-30 22 -47 22l-67 -248c38 0 67 3 84 7c43 12 48 36 51 71h202c0 -53 -1 -128 -50 -177c-67 -65 -246 -67 -302 -67h-34l-41 -143h-122l40 145c-65 7 -167 25 -213 119
c-35 74 -38 292 9 367c64 101 230 94 289 94h77zM336 393c-45 -31 -39 -142 -37 -153c4 -28 12 -45 23 -58c15 -19 39 -22 54 -22l69 247c-47 0 -88 0 -109 -14z" />
    <glyph glyph-name="sterling" unicode="&#xa3;" horiz-adv-x="1107" 
d="M1046 541h-219c-2 30 0 58 -21 76c-22 21 -63 18 -99 18h-155c-51 0 -120 6 -144 -30c-15 -22 -12 -124 -12 -149h348v-154h-348c-4 -65 -5 -85 -51 -126h714v-176h-972v179c34 1 55 9 70 30c13 17 10 45 10 97h-99v151h95v27c0 88 -6 182 53 248c65 74 132 74 247 74
h294c74 0 163 -7 231 -77c49 -50 58 -128 58 -188z" />
    <glyph glyph-name="section" unicode="&#xa7;" horiz-adv-x="836" 
d="M734 655h-163c-1 8 -1 28 -19 36c-9 6 -34 6 -45 6h-78c-84 0 -136 3 -151 -19c-4 -8 -7 -24 0 -36c21 -34 121 -38 144 -41l176 -27c37 -6 146 -13 180 -86c18 -37 21 -92 0 -126c-22 -38 -50 -45 -99 -54c56 -39 78 -62 86 -128c4 -44 0 -99 -39 -140
c-41 -46 -137 -40 -196 -40h-203c-73 0 -169 -6 -206 55c-19 31 -22 63 -22 114h166c0 -20 -5 -43 35 -60c12 -4 36 -4 70 -4h63c80 0 131 -4 151 27c6 9 11 22 2 40c-16 31 -113 38 -138 42l-170 29c-44 7 -157 22 -192 91c-14 25 -18 83 -3 116c21 44 53 56 99 68
c-46 29 -67 50 -74 106c-4 42 -1 95 33 132c50 55 136 49 190 49h206c49 0 139 1 180 -62c14 -23 17 -46 17 -88zM222 463c-5 -10 -5 -25 0 -35c19 -46 120 -60 148 -66l108 -19c26 -3 134 -26 160 3c11 13 14 34 8 52c-11 34 -79 43 -164 58l-232 41
c-15 -10 -22 -21 -28 -34z" />
    <glyph glyph-name="bullet" unicode="&#x2022;" horiz-adv-x="379" 
d="M182 525c34 9 81 2 115 -29c33 -30 45 -76 39 -116c-8 -40 -33 -78 -77 -97c-33 -14 -79 -14 -116 10c-42 28 -60 66 -60 105c-2 53 29 112 99 127z" />
    <glyph glyph-name="paragraph" unicode="&#xb6;" horiz-adv-x="754" 
d="M713 1065v-34h-105v-1158h-43v1157h-145v-1157h-47v609c-68 3 -198 24 -252 126c-49 90 -51 244 0 328c83 136 234 129 330 129h262z" />
    <glyph glyph-name="germandbls" unicode="&#xdf;" horiz-adv-x="883" 
d="M712 456c62 -18 97 -33 119 -101c17 -53 18 -237 -26 -290c-62 -74 -150 -69 -225 -68l-175 3v155c25 -1 172 -22 210 37c14 20 11 128 6 138c-19 41 -83 38 -155 38h-61v139c33 2 145 -6 173 31c15 20 20 54 12 79c-7 21 -20 37 -47 44c-27 6 -194 8 -223 -16
c-33 -27 -29 -86 -29 -163v-482h-208v503c0 55 -9 173 62 246c72 72 183 63 248 66h119c47 -3 186 2 248 -78c36 -46 39 -142 28 -188c-8 -42 -26 -62 -76 -93z" />
    <glyph glyph-name="registered" unicode="&#xae;" horiz-adv-x="1130" 
d="M525 990c129 16 321 -23 448 -172c122 -143 138 -336 98 -472c-49 -171 -157 -287 -339 -342c-137 -42 -324 -28 -467 91c-153 127 -194 312 -178 448c17 149 93 305 275 396c58 30 120 45 163 51zM373 886c-161 -89 -225 -237 -235 -365c-9 -123 35 -286 176 -394
c127 -97 294 -111 420 -66c168 59 251 170 290 322c28 120 4 293 -111 416c-117 124 -284 157 -406 134c-48 -8 -90 -22 -134 -47zM362 790h191c59 0 224 12 289 -93c23 -39 28 -104 7 -147c-28 -57 -86 -81 -135 -90c72 -27 111 -61 131 -140c4 -21 9 -60 9 -120h-119
c-3 54 3 158 -77 196c-31 17 -131 14 -188 14v-210h-108v590zM472 509h53c73 0 170 -8 206 52c15 25 16 60 0 88c-31 55 -119 48 -161 48h-98v-188z" />
    <glyph glyph-name="copyright" unicode="&#xa9;" horiz-adv-x="1133" 
d="M515 991c131 19 313 -15 444 -161c116 -133 148 -326 109 -473c-46 -166 -158 -289 -331 -345c-138 -46 -329 -30 -469 81c-154 123 -201 305 -190 448c14 145 89 302 265 397c55 29 119 46 172 53zM373 892c-160 -84 -230 -229 -241 -361c-11 -123 29 -284 173 -396
c131 -104 300 -113 423 -70c163 56 253 166 291 320c31 130 0 300 -112 418c-124 129 -292 156 -413 133c-35 -7 -77 -20 -121 -44zM814 621h-102c-18 54 -37 93 -97 110c-38 10 -94 9 -131 -22c-67 -57 -71 -212 -67 -249c5 -49 15 -132 87 -167c45 -24 107 -24 150 0
c46 24 59 65 68 115h111c-16 -87 -50 -159 -151 -196c-71 -29 -186 -32 -268 31c-100 78 -112 242 -103 319c7 76 44 187 148 235c69 33 187 31 260 -14c59 -39 83 -89 95 -162z" />
    <glyph glyph-name="trademark" unicode="&#x2122;" horiz-adv-x="1297" 
d="M75 936h466v-100h-173v-300h-124v300h-169v100zM596 936h184l139 -257l140 257h188v-400h-118v282l-165 -282h-93l-161 279v-279h-114v400z" />
    <glyph glyph-name="acute" unicode="&#xb4;" horiz-adv-x="528" 
d="M217 805h264l-230 -218h-174z" />
    <glyph glyph-name="dieresis" unicode="&#xa8;" horiz-adv-x="632" 
d="M84 803h207v-167h-207v167zM380 803h207v-167h-207v167z" />
    <glyph glyph-name="AE" unicode="&#xc6;" horiz-adv-x="1481" 
d="M522 805h901v-197h-463v-124h450v-160h-451v-127h469v-197h-712v167h-331l-107 -167h-271zM490 327h226v305h-36z" />
    <glyph glyph-name="Oslash" unicode="&#xd8;" horiz-adv-x="1212" 
d="M1089 858l75 -83l-59 -47c47 -70 56 -130 56 -198v-181c0 -78 3 -213 -65 -281c-69 -68 -228 -68 -294 -68h-477c-62 0 -94 18 -125 34l-77 -67l-76 85l65 53c-16 25 -42 83 -42 182v191c0 84 -3 180 66 253c76 80 158 74 271 74h472c62 0 97 -6 121 -21zM550 608
c-87 0 -158 4 -199 -46c-43 -53 -31 -242 -21 -291l432 337h-212zM428 197h273c87 0 148 -5 187 43c42 51 20 267 1 321z" />
    <glyph glyph-name="infinity" unicode="&#x221e;" horiz-adv-x="741" 
d="M325 834h265l-229 -217h-175zM-1 564h227l166 -391l160 391h223l-275 -589c-89 -189 -160 -178 -325 -163v129c22 0 60 3 97 12c52 11 53 46 61 72h-77z" />
    <glyph glyph-name="plusminus" unicode="&#xb1;" horiz-adv-x="1016" 
d="M459 858h130v-228h380v-131h-380v-230h-132v228h-380v133h382v228zM77 175h892v-131h-892v131z" />
    <glyph glyph-name="yen" unicode="&#xa5;" horiz-adv-x="1124" 
d="M12 805h291l267 -327l276 327h284l-411 -488h106v-103h-140v-102h140v-105h-140v-7h-243v7h-128v105h128v100h-128v105h102z" />
    <glyph glyph-name="mu" unicode="&#xb5;" horiz-adv-x="1022" 
d="M120 657h208v-340c0 -77 -1 -179 57 -210c28 -15 71 -18 100 0c64 35 62 130 62 208v342h212v-373c0 -40 -5 -142 41 -169c20 -10 48 -10 74 0c17 6 30 23 42 60l10 31c2 6 6 23 18 26c29 8 28 -29 28 -40c0 -6 -2 -25 -9 -56c-16 -64 -38 -114 -111 -135
c-40 -11 -99 -10 -139 27c-40 39 -53 114 -58 157c-13 -50 -37 -135 -114 -173c-44 -22 -97 -25 -139 -8c-57 23 -97 73 -118 117v-193c0 -43 22 -182 -53 -224c-22 -13 -74 -18 -108 3c-64 43 -49 158 -45 225z" />
    <glyph glyph-name="partialdiff" unicode="&#x2202;" horiz-adv-x="1629" 
d="M1108 811h117l-621 -811h-114zM516 799v-478h-157v364l-204 -115l-75 94l235 135h201zM1499 481v-278h84v-104h-84v-99h-159v98h-435v176l400 207h194zM1044 206h298v156z" />
    <glyph glyph-name="summation" unicode="&#x2211;" horiz-adv-x="1673" 
d="M1078 812h116l-623 -812h-114zM309 802h203v-481h-158v362l-205 -112l-75 98zM1135 105h488v-105h-650v62c0 52 -4 133 27 166c37 38 124 41 169 43l137 9c25 1 135 1 151 34c2 4 3 40 -1 47c-17 27 -98 22 -123 22h-87c-54 0 -89 3 -107 -26c-3 -5 -6 -35 -6 -51h-160
c0 37 -3 104 30 136c37 37 87 45 169 45h189c69 0 200 7 241 -64c16 -27 16 -154 2 -180c-36 -64 -140 -65 -236 -71c-78 -5 -204 -15 -204 -15c-13 -2 -29 -15 -29 -31v-21z" />
    <glyph glyph-name="integral" unicode="&#x222b;" horiz-adv-x="1660" 
d="M1143 811h114l-619 -815h-117zM639 561c37 -8 80 -17 96 -60c8 -17 8 -105 -10 -131c-45 -61 -172 -56 -213 -56h-221c-45 0 -150 0 -193 60c-15 21 -14 67 -14 116h159c0 -36 0 -49 13 -61c10 -10 49 -12 115 -12h58c80 0 130 -4 145 25c1 5 3 42 -2 48
c-14 23 -60 20 -156 20h-73v99h61c71 0 140 -4 157 23c4 6 6 35 3 43c-11 17 -26 28 -61 28h-149c-26 0 -63 0 -74 -5c-39 -12 -34 -34 -34 -60h-157c0 34 -5 90 32 125c40 39 102 42 163 42h222c15 0 163 7 206 -54c19 -26 22 -100 13 -127c-15 -44 -46 -50 -86 -63z
M1531 481v-278h84v-104h-84v-99h-158v98h-435v176l399 207h194zM1077 206h297v156z" />
    <glyph glyph-name="ordfeminine" unicode="&#xaa;" horiz-adv-x="416" 
d="M410 589h-102v32c-31 -29 -48 -32 -82 -32h-80c-29 0 -78 -3 -99 31c-16 22 -16 86 -6 106c15 30 40 39 67 43c44 6 151 9 195 -19c0 25 0 44 -16 58c-7 6 -24 4 -36 4h-73c-9 0 -17 0 -20 -1c-9 -6 -9 -15 -9 -21h-105c6 78 48 89 111 89h120c30 0 77 3 110 -30
c26 -29 25 -66 25 -102v-158zM256 651c15 0 24 1 25 1c10 3 19 6 24 21c3 9 0 21 -12 31c-5 3 -19 5 -39 5h-66c-19 0 -33 -2 -39 -5c-10 -10 -13 -22 -10 -31c4 -15 13 -18 22 -21c3 0 14 -1 25 -1h70z" />
    <glyph glyph-name="ordmasculine" unicode="&#xba;" horiz-adv-x="435" 
d="M297 880c14 0 71 2 96 -25c24 -24 26 -69 26 -98v-56c0 -18 1 -69 -26 -96c-23 -24 -73 -24 -96 -24h-122c-23 0 -73 0 -97 24c-26 27 -26 78 -26 96v56c0 29 3 74 26 98c26 27 83 25 97 25h122zM278 654c10 0 36 -3 47 18c3 4 5 19 5 40v42c0 11 0 30 -5 39
c-8 16 -44 15 -51 15h-76c-7 0 -44 1 -52 -15c-5 -9 -5 -28 -5 -39v-42c0 -21 1 -36 4 -40c13 -21 37 -18 47 -18h86z" />
    <glyph glyph-name="ae" unicode="&#xe6;" horiz-adv-x="1376" 
d="M712 484c60 108 176 90 248 91h59c33 0 179 9 252 -66c63 -67 54 -154 54 -234v-43h-508c0 -32 -6 -69 35 -91c28 -15 210 -18 240 -5c35 16 29 21 40 52h193c0 -47 -4 -104 -47 -144c-49 -47 -183 -56 -235 -56h-121c-64 2 -145 -9 -215 82c-58 -77 -120 -82 -188 -82
h-179c-54 0 -195 -7 -242 77c-24 42 -26 184 0 225c48 81 152 71 171 71h178c44 -2 106 -2 158 -52c-1 49 9 98 -33 121c-23 14 -227 17 -247 6c-20 -6 -22 -19 -22 -43h-205c3 42 -3 86 40 125c63 59 254 57 281 57h60c79 -1 173 6 233 -91zM1111 414
c-31 31 -207 28 -241 19c-52 -14 -50 -41 -56 -78h313c0 19 5 38 -16 59zM280 175c4 -27 13 -34 38 -43c28 -12 237 -9 266 13c21 15 27 34 24 49c-3 20 -19 32 -36 40c-28 10 -242 16 -269 -5c-22 -15 -26 -37 -23 -54z" />
    <glyph glyph-name="oslash" unicode="&#xf8;" horiz-adv-x="988" 
d="M888 609l59 -81l-59 -41c35 -74 54 -324 5 -400c-63 -97 -174 -99 -300 -99h-223c-55 0 -83 11 -141 43l-87 -58l-59 80l75 54c-19 75 -38 321 21 396c58 74 180 72 281 72h215c44 0 87 -10 130 -25zM373 395c-36 -28 -39 -123 -27 -155l255 171c-80 -1 -199 6 -228 -16z
M411 149c98 0 232 0 268 20c53 28 30 152 25 188z" />
    <glyph glyph-name="questiondown" unicode="&#xbf;" horiz-adv-x="920" 
d="M410 284h207c0 -136 -22 -177 -166 -206l-22 -4c-31 -6 -126 -19 -143 -62c-9 -21 -6 -48 5 -67c23 -35 111 -31 125 -31h93c32 0 115 -6 140 39c12 20 15 57 18 93h203c0 -46 6 -173 -48 -226c-56 -58 -146 -61 -235 -61h-213c-74 0 -214 -9 -275 86
c-31 48 -31 223 -7 275c32 71 140 81 201 94l34 8c16 3 46 12 53 15c21 9 30 29 30 47zM627 351h-232v213h232v-213z" />
    <glyph glyph-name="exclamdown" unicode="&#xa1;" horiz-adv-x="357" 
d="M312 -234h-225l12 477h204zM315 337h-228v227h228v-227z" />
    <glyph glyph-name="logicalnot" unicode="&#xac;" horiz-adv-x="336" 
d="M288 645h-35l-112 219c-29 55 -89 140 -48 189c19 22 48 30 77 21c64 -18 71 -135 76 -163z" />
    <glyph glyph-name="radical" unicode="&#x221a;" horiz-adv-x="672" 
d="M457 661h-222l-161 218h185l86 -116l93 116h182z" />
    <glyph glyph-name="florin" unicode="&#x192;" horiz-adv-x="1055" 
d="M1004 793v-175c-54 11 -218 43 -275 -16c-28 -28 -35 -80 -47 -146h265v-169h-302l-33 -151c-34 -155 -62 -256 -227 -305c-92 -26 -205 -23 -311 -6v176c61 -14 188 -28 243 6c59 37 72 151 78 179l19 101h-247v169h287l10 45c26 103 42 221 172 277
c89 39 303 25 368 15z" />
    <glyph glyph-name="guillemotleft" unicode="&#xab;" horiz-adv-x="565" 
d="M198 456h116l-111 -169l111 -169h-116l-115 170zM405 456h116l-111 -169l111 -169h-117l-114 169z" />
    <glyph glyph-name="guillemotright" unicode="&#xbb;" horiz-adv-x="564" 
d="M77 456h118l113 -166l-116 -170h-115l112 168zM284 457h115l116 -167l-116 -170h-113l110 167z" />
    <glyph glyph-name="Agrave" unicode="&#xc0;" horiz-adv-x="1188" 
d="M404 1098h263l141 -215h-172zM444 805h319l437 -805h-268l-80 145h-494l-72 -145h-271zM451 314h309l-156 298z" />
    <glyph glyph-name="Atilde" unicode="&#xc3;" horiz-adv-x="1188" 
d="M781 1081h101c-9 -59 -27 -133 -91 -170c-62 -34 -124 -20 -211 12l-22 10c-36 12 -67 20 -94 3c-20 -13 -25 -35 -29 -51h-105c7 53 35 137 105 177c64 36 126 18 197 -13l26 -12c39 -15 68 -25 95 -3c22 18 19 27 28 47zM444 805h319l437 -805h-268l-80 145h-494
l-72 -145h-271zM451 314h309l-156 298z" />
    <glyph glyph-name="Otilde" unicode="&#xd5;" horiz-adv-x="1212" 
d="M802 1093h100c-9 -59 -26 -133 -90 -170c-62 -34 -124 -21 -211 12l-23 10c-35 12 -69 21 -93 3c-23 -18 -26 -37 -29 -52h-105c4 55 35 138 105 178c63 35 125 18 196 -13l27 -12c38 -15 68 -25 95 -3c22 18 19 26 28 47zM436 0c-75 0 -222 3 -290 72
c-65 66 -66 202 -66 256v166c0 58 -5 172 66 241c73 73 188 70 284 70h394c96 0 210 1 284 -70c64 -60 56 -183 56 -241v-166c0 -69 9 -190 -56 -256c-68 -69 -234 -72 -290 -72h-382zM759 197c40 0 114 -8 149 53c8 12 12 53 12 98v109c0 44 -4 86 -12 98
c-35 60 -109 53 -149 53h-274c-40 0 -114 7 -149 -53c-8 -12 -12 -48 -12 -98v-109c0 -46 4 -86 12 -98c35 -61 109 -53 149 -53h274z" />
    <glyph glyph-name="OE" unicode="&#x152;" horiz-adv-x="1509" 
d="M800 700v105h659v-197h-444v-126h430v-161h-430v-124h448v-197h-663v92c-69 -96 -127 -92 -226 -92h-136c-117 0 -210 -9 -284 65c-77 77 -74 170 -74 252v155c0 89 0 189 77 260c81 79 185 73 276 73h168c84 0 136 -9 199 -105zM328 556c-17 -31 -17 -275 0 -306
c34 -58 128 -53 205 -53h28c103 0 162 -8 198 50c21 34 22 277 6 311c-28 57 -129 50 -167 50h-89c-19 0 -107 1 -138 -13c-22 -11 -34 -24 -43 -39z" />
    <glyph glyph-name="oe" unicode="&#x153;" horiz-adv-x="981" 
d="M525 322c36 67 98 66 144 66h75c43 0 115 5 163 -43c41 -42 37 -111 37 -165v-23h-345c0 -21 -4 -48 25 -62c22 -11 144 -6 166 0c19 4 19 12 24 32h130c0 -29 -2 -65 -30 -91c-38 -39 -149 -40 -177 -40h-77c-43 0 -92 -5 -135 54c-47 -53 -92 -54 -137 -54h-107
c-49 0 -149 -9 -192 66c-22 42 -27 219 0 263c38 66 111 61 202 61h100c62 0 97 -1 134 -64zM783 288c-20 6 -148 6 -160 0c-28 -14 -22 -28 -25 -48h210c0 23 4 40 -25 48zM260 278c-25 -4 -40 -12 -48 -34c-3 -13 -3 -101 10 -117c25 -32 146 -23 171 -22
c29 3 51 10 60 31c3 7 4 107 -5 118c-20 33 -127 29 -148 29c-1 0 -23 0 -40 -5z" />
    <glyph glyph-name="endash" unicode="&#x2013;" horiz-adv-x="997" 
d="M75 507h872v-131h-872v131z" />
    <glyph glyph-name="emdash" unicode="&#x2014;" horiz-adv-x="1222" 
d="M75 351h1097v-137h-1097v137z" />
    <glyph glyph-name="quotedblleft" unicode="&#x201c;" horiz-adv-x="713" 
d="M340 805v-126c-32 0 -63 0 -80 -16c-14 -15 -11 -36 -11 -88h54v-214h-223v185c0 61 -9 189 66 234c42 23 134 25 194 25zM669 805v-126c-33 0 -64 0 -80 -16c-15 -15 -12 -36 -12 -88h55v-214h-224v185c0 61 -9 189 67 234c41 23 133 25 194 25z" />
    <glyph glyph-name="quotedblright" unicode="&#x201d;" horiz-adv-x="713" 
d="M410 361v126c32 0 63 0 80 16c14 15 11 35 11 87h-54v215h223v-185c0 -61 9 -190 -66 -234c-42 -24 -134 -25 -194 -25zM81 361v126c33 0 64 0 80 16c15 15 12 35 12 87h-55v215h224v-185c0 -61 9 -190 -67 -234c-41 -24 -133 -25 -194 -25z" />
    <glyph glyph-name="quoteleft" unicode="&#x2018;" horiz-adv-x="386" 
d="M337 805v-126c-32 0 -63 0 -80 -16c-14 -15 -11 -36 -11 -88h54v-214h-223v185c0 61 -9 189 66 234c42 23 134 25 194 25z" />
    <glyph glyph-name="quoteright" unicode="&#x2019;" horiz-adv-x="386" 
d="M75 361v126c33 0 64 0 80 16c15 15 12 35 12 87h-55v215h224v-185c0 -61 9 -190 -67 -234c-41 -24 -133 -25 -194 -25z" />
    <glyph glyph-name="divide" unicode="&#xf7;" horiz-adv-x="859" 
d="M704 817h113l-616 -817h-115z" />
    <glyph glyph-name="ydieresis" unicode="&#xff;" horiz-adv-x="741" 
d="M138 784h207v-167h-207v167zM433 784h208v-167h-208v167zM-1 564h227l166 -391l160 391h223l-275 -589c-89 -189 -160 -178 -325 -163v129c22 0 60 3 97 12c52 11 53 46 61 72h-77z" />
    <glyph glyph-name="Ydieresis" unicode="&#x178;" horiz-adv-x="1124" 
d="M519 1104h265l-229 -218h-176zM24 805h291l266 -329l276 329h285l-445 -528v-277h-243v284z" />
    <glyph glyph-name="fraction" unicode="&#x2044;" horiz-adv-x="1124" 
d="M317 1041h207v-167h-207v167zM612 1041h208v-167h-208v167zM24 805h291l266 -329l276 329h285l-445 -528v-277h-243v284z" />
    <glyph glyph-name="guilsinglleft" unicode="&#x2039;" horiz-adv-x="357" 
d="M200 456h115l-111 -168l110 -167h-116l-112 167z" />
    <glyph glyph-name="guilsinglright" unicode="&#x203a;" horiz-adv-x="357" 
d="M315 288l-112 -167h-116l110 167l-111 168h115z" />
    <glyph glyph-name="fi" unicode="&#xfb01;" horiz-adv-x="932" 
d="M574 666c-78 -2 -157 7 -181 -27c-11 -18 -10 -55 -10 -75h201v-148h-201v-416h-208v416h-97v148h97c0 54 -8 140 51 195c62 59 193 53 284 53h64v-146zM680 805h209v-167h-209v167zM889 564v-564h-209v564h209z" />
    <glyph glyph-name="fl" unicode="&#xfb02;" horiz-adv-x="933" 
d="M575 666c-78 -2 -156 7 -180 -27c-12 -18 -10 -55 -10 -75h201v-148h-201v-416h-209v416h-96v148h96c0 54 -7 140 52 195c62 59 192 53 284 53h63v-146zM679 805h209v-805h-209v805z" />
    <glyph glyph-name="daggerdbl" unicode="&#x2021;" horiz-adv-x="728" 
d="M293 802h177v-153h212v-145h-212v-208h213v-148h-208v-148h-179v148h-215v148h212v208h-213v145h213v153z" />
    <glyph glyph-name="periodcentered" unicode="&#xb7;" horiz-adv-x="485" 
d="M228 0h77l-55 -92c56 9 101 8 145 -26c34 -27 41 -60 40 -89c-3 -42 -21 -77 -65 -105c-73 -46 -210 -24 -296 12l28 63c47 -16 127 -41 167 -17c19 11 27 20 28 40c2 19 -7 34 -19 44c-22 19 -62 13 -102 3l-33 28z" />
    <glyph glyph-name="quotesinglbase" unicode="&#x201a;" horiz-adv-x="362" 
d="M317 220v-167c0 -57 5 -154 -40 -201c-52 -53 -172 -43 -227 -44v124c31 0 48 0 58 4c40 14 34 30 37 64h-62v220h234z" />
    <glyph glyph-name="quotedblbase" unicode="&#x201e;" horiz-adv-x="713" 
d="M405 -229v125c33 0 64 0 80 17c15 15 12 35 12 87h-55v214h224v-184c0 -61 9 -190 -67 -234c-41 -24 -133 -25 -194 -25zM77 -229v125c32 0 64 0 80 17c15 15 12 35 12 87h-55v214h223v-184c0 -61 9 -190 -66 -234c-42 -24 -133 -25 -194 -25z" />
    <glyph glyph-name="perthousand" unicode="&#x2030;" horiz-adv-x="1571" 
d="M652 806h82l-261 -806h-81zM219 700c-13 -6 -19 -28 -19 -55v-93c0 -24 6 -48 19 -55c4 -3 19 -6 43 -6h47c24 0 40 3 45 6c13 7 19 31 19 55v93c0 27 -6 49 -19 55c-5 3 -21 6 -45 6h-50c-18 0 -36 -3 -40 -6zM314 806c51 0 111 5 143 -26c31 -30 28 -60 28 -88v-189
c0 -28 3 -58 -28 -87c-32 -31 -93 -27 -142 -27h-69c-34 0 -107 -4 -141 27c-31 28 -27 66 -27 87v189c0 28 -4 59 27 88c33 31 92 26 145 26h64zM780 303c-14 -6 -20 -28 -20 -54v-94c0 -23 6 -47 20 -54c4 -3 19 -6 42 -6h48c23 0 40 3 44 6c14 7 19 31 19 54v94
c0 26 -5 48 -19 54c-4 3 -21 6 -44 6h-50c-18 0 -36 -3 -40 -6zM874 410c52 0 111 4 144 -27c31 -29 28 -59 28 -87v-189c0 -29 3 -58 -28 -88c-33 -31 -93 -26 -142 -26h-70c-34 0 -106 -5 -140 26c-31 28 -27 67 -27 88v189c0 28 -4 59 27 87c32 31 91 27 145 27h63z
M1263 303c-13 -6 -19 -28 -19 -54v-94c0 -23 6 -47 19 -54c5 -3 20 -6 43 -6h48c23 0 39 3 44 6c13 7 19 31 19 54v94c0 26 -6 48 -19 54c-5 3 -21 6 -44 6h-51c-17 0 -35 -3 -40 -6zM1358 410c52 0 111 4 143 -27c32 -29 29 -59 29 -87v-189c0 -29 3 -58 -29 -88
c-32 -31 -93 -26 -142 -26h-69c-34 0 -107 -5 -141 26c-31 28 -26 67 -26 88v189c0 28 -5 59 26 87c33 31 92 27 145 27h64z" />
    <glyph glyph-name="Acircumflex" unicode="&#xc2;" horiz-adv-x="1188" 
d="M491 1099h222l161 -217h-185l-85 115l-94 -115h-182zM439 805h320l436 -805h-267l-80 145h-494l-73 -145h-271zM447 314h309l-157 298z" />
    <glyph glyph-name="Ecircumflex" unicode="&#xca;" horiz-adv-x="1010" 
d="M459 1099h263l-229 -217h-175zM77 805h871v-197h-627v-127h595v-161h-595v-123h642v-197h-886v805z" />
    <glyph glyph-name="Aacute" unicode="&#xc1;" horiz-adv-x="1188" 
d="M540 1099h263l-229 -217h-175zM439 805h320l436 -805h-267l-80 145h-494l-73 -145h-271zM447 314h309l-157 298z" />
    <glyph glyph-name="Edieresis" unicode="&#xcb;" horiz-adv-x="1010" 
d="M410 1099h222l162 -217h-186l-86 115l-93 -115h-182zM77 805h871v-197h-627v-127h595v-161h-595v-123h642v-197h-886v805z" />
    <glyph glyph-name="Egrave" unicode="&#xc8;" horiz-adv-x="1010" 
d="M321 1098h263l141 -215h-172zM80 805h871v-197h-627v-127h595v-161h-595v-123h642v-197h-886v805z" />
    <glyph glyph-name="Iacute" unicode="&#xcd;" horiz-adv-x="371" 
d="M141 1101h263l-229 -218h-175zM80 805h244v-805h-244v805z" />
    <glyph glyph-name="Icircumflex" unicode="&#xce;" horiz-adv-x="371" 
d="M92 1101h222l161 -218h-185l-86 116l-93 -116h-182zM80 805h244v-805h-244v805z" />
    <glyph glyph-name="Idieresis" unicode="&#xcf;" horiz-adv-x="371" 
d="M-49 1050h207v-167h-207v167zM247 1050h207v-167h-207v167zM80 805h244v-805h-244v805z" />
    <glyph glyph-name="Igrave" unicode="&#xcc;" horiz-adv-x="371" 
d="M0 1099h263l141 -214h-173zM80 805h244v-805h-244v805z" />
    <glyph glyph-name="Oacute" unicode="&#xd3;" horiz-adv-x="1212" 
d="M562 1111h263l-229 -218h-174zM433 0c-75 0 -221 3 -290 72c-65 66 -66 202 -66 256v166c0 58 -5 172 66 241c73 73 188 70 285 70h393c96 0 210 1 284 -70c64 -60 56 -183 56 -241v-166c0 -69 9 -190 -56 -256c-68 -69 -234 -72 -290 -72h-382zM756 197
c40 0 114 -8 149 53c8 12 12 53 12 98v109c0 44 -4 86 -12 98c-35 60 -109 53 -149 53h-274c-40 0 -114 7 -149 -53c-8 -12 -12 -48 -12 -98v-109c0 -46 4 -86 12 -98c35 -61 109 -53 149 -53h274z" />
    <glyph glyph-name="Ocircumflex" unicode="&#xd4;" horiz-adv-x="1212" 
d="M516 1111h222l161 -218h-185l-85 116l-93 -116h-182zM436 0c-75 0 -222 3 -290 72c-65 66 -66 202 -66 256v166c0 58 -5 172 66 241c73 73 188 70 284 70h394c96 0 210 1 284 -70c64 -60 56 -183 56 -241v-166c0 -69 9 -190 -56 -256c-68 -69 -234 -72 -290 -72h-382z
M759 197c40 0 114 -8 149 53c8 12 12 53 12 98v109c0 44 -4 86 -12 98c-35 60 -109 53 -149 53h-274c-40 0 -114 7 -149 -53c-8 -12 -12 -48 -12 -98v-109c0 -46 4 -86 12 -98c35 -61 109 -53 149 -53h274z" />
    <glyph glyph-name="Ograve" unicode="&#xd2;" horiz-adv-x="1212" 
d="M425 1109h263l140 -214h-171zM436 0c-75 0 -222 3 -290 72c-65 66 -66 202 -66 256v166c0 58 -5 172 66 241c73 73 188 70 284 70h394c96 0 210 1 284 -70c64 -60 56 -183 56 -241v-166c0 -69 9 -190 -56 -256c-68 -69 -234 -72 -290 -72h-382zM759 197
c40 0 114 -8 149 53c8 12 12 53 12 98v109c0 44 -4 86 -12 98c-35 60 -109 53 -149 53h-274c-40 0 -114 7 -149 -53c-8 -12 -12 -48 -12 -98v-109c0 -46 4 -86 12 -98c35 -61 109 -53 149 -53h274z" />
    <glyph glyph-name="Uacute" unicode="&#xda;" horiz-adv-x="1135" 
d="M528 1098h263l-229 -218h-174zM86 805h244v-395c0 -51 -6 -142 32 -181c39 -38 102 -32 138 -32h198c22 0 89 -6 124 31c33 34 27 103 27 176v401h244v-477c0 -91 9 -180 -63 -254c-77 -78 -176 -74 -281 -74h-360c-86 0 -155 -7 -235 75c-76 79 -68 216 -68 279v451z
" />
    <glyph glyph-name="Ucircumflex" unicode="&#xdb;" horiz-adv-x="1135" 
d="M473 1098h222l163 -218h-186l-86 116l-93 -116h-182zM80 805h244v-395c0 -51 -6 -142 33 -181c38 -38 102 -32 137 -32h198c22 0 89 -6 125 31c32 34 26 103 26 176v401h244v-477c0 -91 9 -180 -63 -254c-77 -78 -176 -74 -281 -74h-360c-86 0 -155 -7 -235 75
c-76 79 -68 216 -68 279v451z" />
    <glyph glyph-name="Ugrave" unicode="&#xd9;" horiz-adv-x="1135" 
d="M382 1096h263l141 -214h-174zM80 805h244v-395c0 -51 -6 -142 33 -181c38 -38 102 -32 137 -32h198c22 0 89 -6 125 31c32 34 26 103 26 176v401h244v-477c0 -91 9 -180 -63 -254c-77 -78 -176 -74 -281 -74h-360c-86 0 -155 -7 -235 75c-76 79 -68 216 -68 279v451z" />
    <glyph glyph-name="dotlessi" unicode="&#x131;" horiz-adv-x="336" 
d="M290 564v-564h-209v564h209z" />
    <glyph glyph-name="circumflex" unicode="&#x2c6;" horiz-adv-x="672" 
d="M240 879h222l161 -218h-185l-86 116l-93 -116h-182z" />
    <glyph glyph-name="tilde" unicode="&#x2dc;" horiz-adv-x="679" 
d="M537 862h101c-9 -59 -27 -133 -91 -170c-62 -34 -124 -20 -211 12l-22 10c-36 17 -70 21 -94 3c-23 -17 -25 -35 -29 -51h-105c9 59 35 137 105 177c63 36 126 18 197 -13l26 -12c39 -15 67 -22 95 -3c24 16 25 31 28 47z" />
    <glyph glyph-name="macron" unicode="&#xaf;" horiz-adv-x="658" 
d="M84 825h531v-122h-531v122z" />
    <glyph glyph-name="breve" unicode="&#x2d8;" horiz-adv-x="635" 
d="M80 882h105c19 -62 47 -86 105 -96c38 -6 138 -6 177 44c12 16 17 37 21 53h102c-7 -77 -32 -151 -126 -195c-75 -37 -205 -42 -284 7s-94 107 -100 187z" />
    <glyph glyph-name="dotaccent" unicode="&#x2d9;" horiz-adv-x="333" 
d="M126 645h-39l42 260c7 39 9 154 78 169c27 6 58 1 76 -24c35 -47 -32 -154 -54 -195z" />
    <glyph glyph-name="ring" unicode="&#x2da;" horiz-adv-x="513" 
d="M166 994c43 7 235 15 278 -31c26 -30 22 -157 18 -172c-11 -35 -29 -65 -69 -75c-39 -10 -236 -19 -278 15c-45 35 -40 126 -37 167c6 62 24 87 88 96zM179 843c1 -22 0 -37 27 -52c13 -5 118 -3 128 0c27 9 25 24 27 45c1 35 -2 63 -16 77c-12 10 -114 7 -125 6
c-42 -9 -42 -39 -41 -76z" />
    </font>
</defs>
</svg>
